PathFileType	4	(X/Y/Z)	output.trc
DataRate	CameraRate	NumFrames	NumMarkers	Units	OrigDataRate	OrigDataStartFrame	OrigNumFrames
120	120	10	17	m	120	1120	4477
Frame#	Time	Elbow_Midpoint			GH			Wrist_Midpoint			US			RS			C7			EM			EL			T8			SC			AC			AI			TS			AA			IJx			PX00			PC
		X1	Y1	Z1	X2	Y2	Z2	X3	Y3	Z3	X4	Y4	Z4	X5	Y5	Z5	X6	Y6	Z6	X7	Y7	Z7	X8	Y8	Z8	X9	Y9	Z9	X10	Y10	Z10	X11	Y11	Z11	X12	Y12	Z12	X13	Y13	Z13	X14	Y14	Z14	X15	Y15	Z15	X16	Y16	Z16	X17	Y17	Z17
1119	9.325000	0.321888	1.194671	-0.787406	0.323864	1.207737	-0.518118	0.348245	1.236418	-1.011874	0.368854	1.226985	-1.009861	0.327637	1.245851	-1.013887	0.168913	1.314802	-0.468568	0.324900	1.149109	-0.780006	0.354591	1.197997	-0.797959	0.174648	1.089876	-0.383937	0.172781	1.215841	-0.528675	0.284034	1.236569	-0.509780	0.291925	1.073008	-0.419656	0.244565	1.226424	-0.413391	0.333424	1.231117	-0.524525	0.159269	1.218038	-0.530436	0.147327	1.028585	-0.567117	0.273592	1.201908	-0.532512
1120	9.333333	0.321868	1.194644	-0.787460	0.323873	1.207765	-0.518159	0.348267	1.236395	-1.011923	0.368874	1.226959	-1.009907	0.327660	1.245830	-1.013939	0.168870	1.314811	-0.468626	0.324884	1.149093	-0.780036	0.354584	1.197972	-0.798000	0.174611	1.089892	-0.383974	0.172758	1.215844	-0.528724	0.284023	1.236574	-0.509830	0.291901	1.073010	-0.419710	0.244532	1.226424	-0.413451	0.333417	1.231126	-0.524563	0.159246	1.218040	-0.530488	0.147328	1.028582	-0.567154	0.273589	1.201914	-0.532565
1121	9.341667	0.321863	1.194632	-0.787510	0.323891	1.207781	-0.518202	0.348287	1.236384	-1.011969	0.368893	1.226946	-1.009952	0.327681	1.245822	-1.013987	0.168830	1.314815	-0.468686	0.324872	1.149073	-0.780071	0.354585	1.197942	-0.798043	0.174577	1.089903	-0.384015	0.172736	1.215844	-0.528775	0.284016	1.236573	-0.509882	0.291887	1.073016	-0.419749	0.244504	1.226426	-0.413511	0.333414	1.231128	-0.524603	0.159224	1.218038	-0.530541	0.147328	1.028576	-0.567194	0.273590	1.201910	-0.532617
1122	9.350000	0.321878	1.194640	-0.787553	0.323918	1.207782	-0.518245	0.348305	1.236383	-1.012013	0.368911	1.226944	-1.009995	0.327700	1.245822	-1.014031	0.168792	1.314814	-0.468745	0.324866	1.149053	-0.780111	0.354593	1.197910	-0.798087	0.174545	1.089909	-0.384058	0.172715	1.215839	-0.528827	0.284010	1.236568	-0.509935	0.291878	1.073026	-0.419775	0.244484	1.226434	-0.413569	0.333411	1.231123	-0.524648	0.159203	1.218032	-0.530596	0.147329	1.028567	-0.567237	0.273590	1.201901	-0.532667
1123	9.358333	0.321914	1.194666	-0.787587	0.323949	1.207767	-0.518290	0.348321	1.236392	-1.012053	0.368928	1.226956	-1.010035	0.327714	1.245827	-1.014071	0.168757	1.314808	-0.468804	0.324865	1.149034	-0.780154	0.354607	1.197881	-0.798133	0.174521	1.089908	-0.384106	0.172696	1.215831	-0.528881	0.284003	1.236561	-0.509990	0.291869	1.073039	-0.419792	0.244472	1.226448	-0.413624	0.333405	1.231113	-0.524699	0.159184	1.218023	-0.530651	0.147329	1.028555	-0.567285	0.273585	1.201888	-0.532714
1124	9.366667	0.321970	1.194708	-0.787613	0.323976	1.207737	-0.518335	0.348334	1.236408	-1.012089	0.368945	1.226982	-1.010072	0.327722	1.245834	-1.014106	0.168728	1.314798	-0.468862	0.324870	1.149017	-0.780202	0.354626	1.197857	-0.798179	0.174509	1.089900	-0.384159	0.172679	1.215820	-0.528937	0.283996	1.236552	-0.510047	0.291860	1.073058	-0.419799	0.244469	1.226470	-0.413675	0.333397	1.231098	-0.524756	0.159166	1.218010	-0.530708	0.147332	1.028541	-0.567338	0.273575	1.201872	-0.532759
1125	9.375000	0.322041	1.194764	-0.787632	0.323994	1.207695	-0.518380	0.348343	1.236430	-1.012121	0.368961	1.227018	-1.010105	0.327725	1.245842	-1.014138	0.168705	1.314784	-0.468919	0.324884	1.149003	-0.780253	0.354651	1.197838	-0.798224	0.174509	1.089886	-0.384217	0.172664	1.215807	-0.528994	0.283990	1.236541	-0.510105	0.291853	1.073080	-0.419797	0.244475	1.226498	-0.413724	0.333388	1.231078	-0.524819	0.159152	1.217996	-0.530765	0.147335	1.028526	-0.567396	0.273563	1.201854	-0.532803
1126	9.383333	0.322123	1.194831	-0.787645	0.324001	1.207646	-0.518424	0.348349	1.236458	-1.012151	0.368976	1.227064	-1.010136	0.327723	1.245851	-1.014166	0.168690	1.314770	-0.468975	0.324906	1.148991	-0.780306	0.354682	1.197824	-0.798267	0.174520	1.089870	-0.384280	0.172653	1.215794	-0.529053	0.283987	1.236528	-0.510165	0.291855	1.073104	-0.419789	0.244489	1.226529	-0.413773	0.333382	1.231055	-0.524886	0.159140	1.217982	-0.530823	0.147337	1.028512	-0.567458	0.273554	1.201832	-0.532846
1127	9.391667	0.322211	1.194904	-0.787656	0.324000	1.207593	-0.518468	0.348352	1.236488	-1.012180	0.368988	1.227116	-1.010166	0.327716	1.245860	-1.014194	0.168683	1.314757	-0.469033	0.324937	1.148978	-0.780359	0.354719	1.197812	-0.798308	0.174538	1.089855	-0.384346	0.172645	1.215783	-0.529115	0.283989	1.236509	-0.510226	0.291874	1.073128	-0.419777	0.244510	1.226555	-0.413822	0.333381	1.231029	-0.524955	0.159131	1.217970	-0.530883	0.147335	1.028500	-0.567522	0.273551	1.201803	-0.532890
1128	9.400000	0.322298	1.194970	-0.787669	0.323993	1.207539	-0.518512	0.348351	1.236521	-1.012209	0.368997	1.227170	-1.010197	0.327706	1.245873	-1.014221	0.168684	1.314746	-0.469095	0.324977	1.148962	-0.780411	0.354760	1.197799	-0.798348	0.174557	1.089842	-0.384413	0.172639	1.215774	-0.529179	0.283998	1.236484	-0.510290	0.291914	1.073147	-0.419764	0.244537	1.226572	-0.413873	0.333387	1.231002	-0.525025	0.159125	1.217961	-0.530945	0.147328	1.028491	-0.567587	0.273558	1.201766	-0.532935
